<svg width="34" height="40" viewBox="0 0 34 40" fill="none" xmlns="http://www.w3.org/2000/svg">
<path d="M26.6665 33.3333H19.9998L13.3333 39.9991V40H6.66652V33.3333H13.3333V33.3341L19.9998 26.6665H26.6665V33.3333Z" fill="#FFBA38"/>
<path d="M6.66652 33.3333H0V26.6667H6.66652V33.3333Z" fill="#FFBA38"/>
<path d="M13.3333 26.6667H6.66652V20H13.3333V26.6667Z" fill="#FFBA38"/>
<path d="M33.333 26.6667L26.6665 26.6665V20H33.333V26.6667Z" fill="#FFBA38"/>
<path d="M6.66652 20H0V13.3335H6.66652V20Z" fill="#FFBA38"/>
<path d="M26.6665 20H19.9998V13.3335H26.6665V20Z" fill="#FFBA38"/>
<path d="M26.6665 6.66674H19.9998L13.3333 13.3348V13.3335H6.66652V6.66674H13.3333L19.9998 0H26.6665V6.66674Z" fill="#FFBA38"/>
<path d="M33.333 13.3335H26.6665V6.66674H33.333V13.3335Z" fill="#FFBA38"/>
</svg>
